<?xml version="1.0" encoding="UTF-8"?>
<!DOCTYPE svg PUBLIC "-//W3C//DTD SVG 1.1//EN" "http://www.w3.org/Graphics/SVG/1.1/DTD/svg11.dtd">
<!-- Creator: CorelDRAW (Versión OEM) -->
<svg xmlns="http://www.w3.org/2000/svg" xml:space="preserve" width="15.8783mm" height="15.8783mm" version="1.1" style="shape-rendering:geometricPrecision; text-rendering:geometricPrecision; image-rendering:optimizeQuality; fill-rule:evenodd; clip-rule:evenodd"
viewBox="0 0 57.03 57.03"
 xmlns:xlink="http://www.w3.org/1999/xlink"
 xmlns:xodm="http://www.corel.com/coreldraw/odm/2003">
 <defs>
  <style type="text/css">
   <![CDATA[
    .fil3 {fill:none}
    .fil0 {fill:#FEFEFE}
    .fil2 {fill:#0F2738;fill-rule:nonzero}
    .fil1 {fill:white;fill-rule:nonzero}
   ]]>
  </style>
   <clipPath id="id0">
    <path d="M-0 57.03l57.03 0 0 -57.03 -57.03 0 0 57.03z"/>
   </clipPath>
 </defs>
 <g id="Capa_x0020_1">
  <metadata id="CorelCorpID_0Corel-Layer"/>
  <polygon id="cart-svgrepo-com.svg" class="fil0" points="-0,57.03 57.03,57.03 57.03,0 -0,0 "/>
  <g style="clip-path:url(#id0)">
   <g id="_2307122266288">
    <rect class="fil1" x="64.48" y="5.61" width="57.03" height="57.03"/>
    <path class="fil2" d="M13.94 10.67l32.78 0c0.17,0 0.33,0.01 0.5,0.03 1,0.13 1.88,0.62 2.51,1.33 0.63,0.72 1.01,1.65 1.01,2.66 0,0.16 -0.01,0.33 -0.03,0.5l-1.78 14.26c-0.13,1.01 -0.62,1.89 -1.33,2.52 -0.72,0.63 -1.65,1.01 -2.66,1.01l-24.99 0 0.89 3.29c0.04,0.16 0.13,0.29 0.26,0.38 0.12,0.09 0.28,0.15 0.45,0.15l23.13 0c0.91,0 1.65,0.74 1.65,1.65 0,0.91 -0.74,1.65 -1.65,1.65l-23.13 0c-0.91,0 -1.76,-0.31 -2.44,-0.83 -0.69,-0.53 -1.21,-1.27 -1.44,-2.15l-7.37 -27.37c-0.04,-0.16 -0.13,-0.29 -0.26,-0.38 -0.12,-0.09 -0.28,-0.15 -0.45,-0.15l-5.31 0c-0.91,0 -1.65,-0.74 -1.65,-1.65 0,-0.91 0.74,-1.65 1.65,-1.65l5.31 0c0.91,0 1.76,0.31 2.45,0.83 0.69,0.53 1.21,1.27 1.44,2.15l0.48 1.77zm27.88 34.92c0,-0.2 -0.08,-0.38 -0.21,-0.51 -0.13,-0.13 -0.31,-0.21 -0.51,-0.21 -0.2,0 -0.38,0.08 -0.51,0.21 -0.13,0.13 -0.21,0.31 -0.21,0.51 0,0.2 0.08,0.38 0.21,0.51 0.13,0.13 0.31,0.21 0.51,0.21 0.2,0 0.38,-0.08 0.51,-0.21 0.13,-0.13 0.21,-0.31 0.21,-0.51zm2.12 -2.85c0.73,0.73 1.18,1.74 1.18,2.85 0,1.11 -0.45,2.12 -1.18,2.85 -0.73,0.73 -1.74,1.18 -2.85,1.18 -1.11,0 -2.12,-0.45 -2.85,-1.18 -0.73,-0.73 -1.18,-1.74 -1.18,-2.85 0,-1.11 0.45,-2.12 1.18,-2.85 0.73,-0.73 1.74,-1.18 2.85,-1.18 1.11,0 2.12,0.45 2.85,1.18zm-19.94 2.85c0,-0.2 -0.08,-0.38 -0.21,-0.51 -0.13,-0.13 -0.31,-0.21 -0.51,-0.21 -0.2,0 -0.38,0.08 -0.51,0.21 -0.13,0.13 -0.21,0.31 -0.21,0.51 0,0.2 0.08,0.38 0.21,0.51 0.13,0.13 0.31,0.21 0.51,0.21 0.2,0 0.38,-0.08 0.51,-0.21 0.13,-0.13 0.21,-0.31 0.21,-0.51zm2.12 -2.85c0.73,0.73 1.18,1.74 1.18,2.85 0,1.11 -0.45,2.12 -1.18,2.85 -0.73,0.73 -1.74,1.18 -2.85,1.18 -1.11,0 -2.12,-0.45 -2.85,-1.18 -0.73,-0.73 -1.18,-1.74 -1.18,-2.85 0,-1.11 0.45,-2.12 1.18,-2.85 0.73,-0.73 1.74,-1.18 2.85,-1.18 1.11,0 2.12,0.45 2.85,1.18zm-7.07 -13.06l25.88 0c0.19,0 0.36,-0.07 0.48,-0.18 0.13,-0.11 0.21,-0.27 0.24,-0.45l1.78 -14.26c0,-0.03 0.01,-0.06 0.01,-0.1 0,-0.19 -0.07,-0.35 -0.18,-0.48 -0.11,-0.13 -0.27,-0.21 -0.45,-0.24 -0.03,-0 -0.06,-0.01 -0.1,-0.01l-31.89 0 4.23 15.71z"/>
   </g>
  </g>
  <polygon class="fil3" points="-0,57.03 57.03,57.03 57.03,0 -0,0 "/>
 </g>
</svg>
