<?xml version="1.0" encoding="UTF-8"?>
<!DOCTYPE svg PUBLIC "-//W3C//DTD SVG 1.1//EN" "http://www.w3.org/Graphics/SVG/1.1/DTD/svg11.dtd">
<!-- Creator: CorelDRAW (Versión OEM) -->
<svg xmlns="http://www.w3.org/2000/svg" xml:space="preserve" width="14.2815mm" height="14.2815mm" version="1.1" style="shape-rendering:geometricPrecision; text-rendering:geometricPrecision; image-rendering:optimizeQuality; fill-rule:evenodd; clip-rule:evenodd"
viewBox="0 0 50.23 50.23"
 xmlns:xlink="http://www.w3.org/1999/xlink"
 xmlns:xodm="http://www.corel.com/coreldraw/odm/2003">
 <defs>
  <style type="text/css">
   <![CDATA[
    .str0 {stroke:#0F2738;stroke-width:0.7;stroke-miterlimit:22.9256}
    .fil1 {fill:#0F2738;fill-rule:nonzero}
    .fil0 {fill:white;fill-rule:nonzero}
   ]]>
  </style>
 </defs>
 <g id="Capa_x0020_1">
  <metadata id="CorelCorpID_0Corel-Layer"/>
  <g id="heart-svgrepo-com.svg">
   <rect class="fil0" width="50.23" height="50.23"/>
   <path class="fil1 str0" d="M46.02 18.83c0,3.75 -2.08,7.95 -5.02,11.98 -3.93,5.38 -9.44,10.55 -13.36,13.75 -0.73,0.59 -1.61,0.9 -2.51,0.91 -0.89,0.01 -1.79,-0.26 -2.53,-0.83 -3.95,-3.02 -9.47,-7.99 -13.39,-13.39 -2.93,-4.03 -5,-8.35 -5,-12.43 0,-6.42 3.18,-10.48 7.15,-12.28 1.49,-0.67 3.1,-1.02 4.7,-1.04 1.6,-0.02 3.19,0.28 4.64,0.89 1.73,0.73 3.26,1.89 4.41,3.47 1.14,-1.58 2.68,-2.74 4.41,-3.47 1.46,-0.62 3.05,-0.92 4.64,-0.89 1.61,0.02 3.22,0.37 4.7,1.04 3.98,1.8 7.15,5.86 7.15,12.28zm-8.35 9.56c2.47,-3.38 4.21,-6.78 4.21,-9.56 0,-4.53 -2.09,-7.33 -4.71,-8.51 -0.98,-0.44 -2.03,-0.67 -3.05,-0.69 -1.04,-0.02 -2.06,0.18 -2.99,0.57 -2.23,0.95 -3.94,3.14 -3.94,6.54 0,1.14 -0.93,2.07 -2.07,2.07 -1.14,0 -2.07,-0.93 -2.07,-2.07 0,-3.4 -1.71,-5.59 -3.94,-6.54 -0.93,-0.39 -1.96,-0.59 -2.99,-0.57 -1.03,0.02 -2.07,0.24 -3.05,0.69 -2.62,1.18 -4.71,3.98 -4.71,8.51 0,3.1 1.74,6.61 4.21,10.01 3.64,5.01 8.8,9.65 12.51,12.5 3.73,-3.05 8.93,-7.93 12.6,-12.95z"/>
  </g>
 </g>
</svg>
